<?xml version="1.0" encoding="UTF-8"?>
<svg id="Icon_12" data-name="Icon 12" xmlns="http://www.w3.org/2000/svg" xmlns:xlink="http://www.w3.org/1999/xlink" viewBox="0 0 1510 1510">
  <defs>
    <style>
      .cls-1 {
        fill: url(#radial-gradient);
        opacity: .5;
      }

      .cls-1, .cls-2, .cls-3, .cls-4, .cls-5, .cls-6, .cls-7, .cls-8 {
        stroke-width: 0px;
      }

      .cls-2 {
        fill: url(#radial-gradient-2);
      }

      .cls-3 {
        fill: url(#radial-gradient-3);
      }

      .cls-4 {
        fill: url(#radial-gradient-4);
      }

      .cls-5 {
        fill: url(#radial-gradient-6);
      }

      .cls-6 {
        fill: url(#radial-gradient-5);
      }

      .cls-7 {
        fill: url(#radial-gradient-7);
      }

      .cls-8 {
        fill: #fff;
      }
    </style>
    <radialGradient id="radial-gradient" cx="755" cy="755" fx="755" fy="755" r="406.76734" gradientTransform="translate(0 -26.748) scale(1 1.03543)" gradientUnits="userSpaceOnUse">
      <stop offset="0" stop-color="#fff" stop-opacity="0"/>
      <stop offset=".34947" stop-color="#fff" stop-opacity=".00762"/>
      <stop offset=".48517" stop-color="#fff" stop-opacity=".03491"/>
      <stop offset=".58375" stop-color="#fff" stop-opacity=".08234"/>
      <stop offset=".66434" stop-color="#fff" stop-opacity=".15002"/>
      <stop offset=".73396" stop-color="#fff" stop-opacity=".23819"/>
      <stop offset=".79595" stop-color="#fff" stop-opacity=".34695"/>
      <stop offset=".85233" stop-color="#fff" stop-opacity=".47657"/>
      <stop offset=".9044" stop-color="#fff" stop-opacity=".62745"/>
      <stop offset=".95218" stop-color="#fff" stop-opacity=".79668"/>
      <stop offset=".99564" stop-color="#fff" stop-opacity=".97992"/>
      <stop offset="1" stop-color="#fff"/>
    </radialGradient>
    <radialGradient id="radial-gradient-2" cx="754.99988" cy="582.59497" fx="754.99988" fy="582.59497" r="332.9446" gradientTransform="translate(0 117.87679) scale(1 .79767)" gradientUnits="userSpaceOnUse">
      <stop offset="0" stop-color="#fff" stop-opacity="0"/>
      <stop offset=".12968" stop-color="#fff" stop-opacity=".01519"/>
      <stop offset=".25576" stop-color="#fff" stop-opacity=".06112"/>
      <stop offset=".38049" stop-color="#fff" stop-opacity=".13797"/>
      <stop offset=".50437" stop-color="#fff" stop-opacity=".24586"/>
      <stop offset=".62767" stop-color="#fff" stop-opacity=".38494"/>
      <stop offset=".75054" stop-color="#fff" stop-opacity=".55531"/>
      <stop offset=".87316" stop-color="#fff" stop-opacity=".75728"/>
      <stop offset=".99265" stop-color="#fff" stop-opacity=".98499"/>
      <stop offset="1" stop-color="#fff"/>
    </radialGradient>
    <radialGradient id="radial-gradient-3" cx="754.99512" cy="823.88013" fx="754.99512" fy="823.88013" r="299.73476" gradientTransform="translate(0 166.69616) scale(1 .79767)" xlink:href="#radial-gradient-2"/>
    <radialGradient id="radial-gradient-4" cx="634.16003" cy="844.37476" fx="634.16003" fy="844.37476" r=".19305" gradientTransform="translate(0 170.84285) scale(1 .79767)" xlink:href="#radial-gradient-2"/>
    <radialGradient id="radial-gradient-5" cx="536.26514" cy="912.5" fx="536.26514" fy="912.5" r="237.68005" gradientTransform="translate(0 159.65968) scale(1 .82503)" xlink:href="#radial-gradient-2"/>
    <radialGradient id="radial-gradient-6" cx="756.42493" cy="964.29004" fx="756.42493" fy="964.29004" r="344.18864" gradientTransform="translate(0 168.72136) scale(1 .82503)" xlink:href="#radial-gradient-2"/>
    <radialGradient id="radial-gradient-7" cx="974.81995" cy="912.38501" fx="974.81995" fy="912.38501" r="236.89219" gradientTransform="translate(0 159.63956) scale(1 .82503)" xlink:href="#radial-gradient-2"/>
  </defs>
  <g id="Graphic_Element" data-name="Graphic Element">
    <path id="blur" class="cls-1" d="m1108.0625,737.30615c-.00586-.24805-.01367-.49561-.02441-.74316-.02344-.56787-.05664-1.1333-.10498-1.69678-.00879-.09814-.02002-.1958-.0293-.29395-.40088-4.25439-1.51709-8.37109-3.25977-12.19482-.03369-.07373-.06592-.14795-.09961-.22119-.25-.53906-.51318-1.06982-.7876-1.59619-.09277-.17822-.18604-.35547-.28125-.53174-.2417-.44727-.49072-.88916-.75049-1.32568-.15674-.26562-.31982-.52734-.48291-.78906-.04834-.07715-.09375-.15576-.14258-.23242l-20.6958-22.25049-69.16064-70.23242v-116.27441c0-36.39844-29.6123-66.01074-66.01074-66.01074h-113.4917l-35.63525-36.1875c-11.19727-11.36719-26.15137-17.62695-42.1084-17.62695-15.95508,0-30.90723,6.26074-42.10547,17.63086l-35.63135,36.18359h-113.49268c-36.39844,0-66.01074,29.6123-66.01074,66.01074v116.27441l-69.16113,70.23291-20.69531,22.24365c-.28442.44824-.5603.90088-.8252,1.36035-.13354.22998-.26294.46191-.3916.69482-.21484.39111-.42285.78516-.62378,1.18311-.17871.35156-.35352.70508-.52124,1.06201-.1189.25439-.23145.51123-.34448.76807-.21655.48828-.42773.97803-.62378,1.47559-.02197.05566-.04126.11182-.06299.16797-1.52222,3.91455-2.40039,8.09375-2.55225,12.38086-.00488.12891-.00928.25781-.0127.38721-.00806.31348-.03125.62451-.03125.93896v285.69043c0,50.59131,38.88623,92.26367,88.33789,96.71582l30.84619.40137h470.65918l31.49902-.77344c47.77393-6.05566,84.83545-46.95264,84.83545-96.34375v-285.69043c0-.26367-.02051-.52441-.02637-.7876Z"/>
    <g id="lines">
      <g>
        <g>
          <path class="cls-8" d="m757.87988,915.75c-.32983.18018-.67993.33008-1.03979.4502.35986-.11035.70996-.26025,1.03979-.44043l117.14014-64.09961-117.14014,64.08984Zm-294.5498-171.66992h-.02002l149.95996,82.04004-149.93994-82.04004Zm294.5498,171.66992c-.32983.18018-.67993.33008-1.03979.4502.35986-.11035.70996-.26025,1.03979-.44043l117.14014-64.09961-117.14014,64.08984Zm-123.87988-71.47021l-.01001.01025.34009.17969-.33008-.18994Zm441.3999-108.95996c.18018.34033.31982.7002.43994,1.08008-.10986-.37988-.25977-.73975-.43994-1.08008Z"/>
          <path class="cls-8" d="m634,844.27979l-.01001.01025.34009.17969-.33008-.18994Z"/>
        </g>
        <g>
          <path class="cls-2" d="m1055.7998,732.10986H454.19995l290.03003-294.52002c2.86011-2.90967,6.68994-4.50977,10.77002-4.50977s7.90991,1.6001,10.77002,4.5l290.02979,294.52979Z"/>
          <polygon class="cls-3" points="1046.68018 744.08008 933.41016 806.06006 755 903.68018 613.27002 826.12012 463.31006 744.08008 1046.68018 744.08008"/>
          <polygon class="cls-4" points="634.33008 844.46973 633.98999 844.29004 634 844.27979 634.33008 844.46973"/>
          <g>
            <path class="cls-8" d="m755,903.66992l-141.72998-77.5498,141.72998,77.56006,178.41016-97.62012-178.41016,97.60986Zm-121-59.39014l-.01001.01025.34009.17969-.33008-.18994Z"/>
            <path class="cls-8" d="m634,844.27979l-.01001.01025.34009.17969-.33008-.18994Z"/>
          </g>
        </g>
        <g>
          <polygon class="cls-8" points="634.33008 844.46973 633.98999 844.29004 634 844.27979 634.33008 844.46973"/>
          <polygon class="cls-8" points="634.33008 844.46973 633.98999 844.29004 634 844.27979 634.33008 844.46973"/>
        </g>
      </g>
      <path class="cls-6" d="m626.64014,847.1001l-131.02002,229.69971c-27.72021-1.75-49.72998-24.85986-49.72998-53.02002v-275.57959l180.75,98.8999Z"/>
      <path class="cls-5" d="m1003.50977,1076.91992h-494.16968l127.80981-224.06982,114.99023,62.90967c.87988.48047,1.85986.73047,2.85986.73047.62012,0,1.23999-.1001,1.84009-.29004.35986-.12012.70996-.27002,1.03979-.4502l117.14014-64.08984h.01001l128.47974,225.25977Z"/>
      <path class="cls-8" d="m1076.06006,737.54004c-.01025-.16016-.04004-.32031-.06982-.47998-.01025-.06982-.02051-.12988-.03027-.18994-.04004-.16016-.08008-.32031-.12012-.47021-.12012-.37988-.25977-.73975-.43994-1.08008-.08984-.16992-.18994-.33984-.2998-.50977v-.01025c-.10986-.15967-.22021-.30957-.34033-.45996-.11963-.15967-.25-.2998-.37988-.43994l-.00977-.00977-300.06006-304.70996c-5.14014-5.21045-11.98999-8.08008-19.31006-8.08008s-14.16992,2.86963-19.31006,8.08008l-300.06982,304.71973c-.09009.09033-.18018.18994-.25.29004-.07007.06982-.13013.1499-.2002.22998-.06982.08984-.1499.18994-.21997.2998-.03003.06006-.07007.11035-.10986.17041-.08008.13965-.16016.27979-.23999.41992-.27002.52002-.47021,1.06982-.57007,1.6499-.08008.37012-.12012.75-.12012,1.12988v285.68994c0,35.91016,29.21021,65.12012,65.12012,65.12012h511.9397c35.91016,0,65.12012-29.20996,65.12012-65.12012v-285.68994c0-.18994-.00977-.37012-.02979-.5498Zm-331.83008-299.9502c2.86011-2.90967,6.68994-4.50977,10.77002-4.50977s7.90991,1.6001,10.77002,4.5l290.02979,294.52979H454.19995l290.03003-294.52002Zm-130.95996,388.53027l-149.95996-82.04004h583.37012l-113.27002,61.97998-178.41016,97.62012-141.72998-77.56006Zm21.06006,18.34961l-.34009-.17969.01001-.01025.33008.18994Zm-138.70996,232.33008c-27.72021-1.75-49.72998-24.85986-49.72998-53.02002v-275.57959l180.75,98.8999-131.02002,229.69971Zm13.71997.12012l127.80981-224.06982,114.99023,62.90967c.87988.48047,1.85986.73047,2.85986.73047.62012,0,1.23999-.1001,1.84009-.29004.35986-.12012.70996-.27002,1.03979-.4502l117.14014-64.08984h.01001l128.47974,225.25977h-494.16968Zm554.76978-53.14014c0,27.24023-20.58984,49.75-47.02002,52.79004l-131.55981-230.65967,178.57983-97.70996v275.57959Z"/>
      <path class="cls-7" d="m1064.10986,748.2002v275.57959c0,27.24023-20.58984,49.75-47.02002,52.79004l-131.55981-230.65967,178.57983-97.70996Z"/>
    </g>
    <path id="paper" class="cls-8" d="m563.768,474.91315c-18.78372,0-34.01093,15.22721-34.01093,34.01093v278.33526l225.2429,123.24285,225.2429-123.24285v-278.33526c0-18.78372-15.22721-34.01093-34.01093-34.01093h-382.46395Z"/>
  </g>
</svg>