<?xml version="1.0" encoding="UTF-8"?>
<svg id="Icon_12" data-name="Icon 12" xmlns="http://www.w3.org/2000/svg" xmlns:xlink="http://www.w3.org/1999/xlink" viewBox="0 0 1510 1510">
  <defs>
    <style>
      .cls-1 {
        fill: url(#radial-gradient);
        opacity: .5;
      }

      .cls-1, .cls-2, .cls-3, .cls-4 {
        stroke-width: 0px;
      }

      .cls-2 {
        fill: url(#radial-gradient-2);
      }

      .cls-3 {
        fill: url(#radial-gradient-3);
      }

      .cls-4 {
        fill: #fff;
      }
        
        
       body{
         background-color:black;
        } 
        
        
        
    </style>
    <radialGradient id="radial-gradient" cx="755" cy="755" fx="755" fy="755" r="406.76734" gradientTransform="translate(0 -26.748) scale(1 1.03543)" gradientUnits="userSpaceOnUse">
      <stop offset="0" stop-color="#fff" stop-opacity="0"/>
      <stop offset=".34947" stop-color="#fff" stop-opacity=".00762"/>
      <stop offset=".48517" stop-color="#fff" stop-opacity=".03491"/>
      <stop offset=".58375" stop-color="#fff" stop-opacity=".08234"/>
      <stop offset=".66434" stop-color="#fff" stop-opacity=".15002"/>
      <stop offset=".73396" stop-color="#fff" stop-opacity=".23819"/>
      <stop offset=".79595" stop-color="#fff" stop-opacity=".34695"/>
      <stop offset=".85233" stop-color="#fff" stop-opacity=".47657"/>
      <stop offset=".9044" stop-color="#fff" stop-opacity=".62745"/>
      <stop offset=".95218" stop-color="#fff" stop-opacity=".79668"/>
      <stop offset=".99564" stop-color="#fff" stop-opacity=".97992"/>
      <stop offset="1" stop-color="#fff"/>
    </radialGradient>
    <radialGradient id="radial-gradient-2" cx="754.99952" cy="669.14453" fx="754.99952" fy="669.14453" r="401.22343" gradientTransform="translate(0 135.38842) scale(1 .79767)" gradientUnits="userSpaceOnUse">
      <stop offset="0" stop-color="#fff" stop-opacity="0"/>
      <stop offset=".12968" stop-color="#fff" stop-opacity=".01519"/>
      <stop offset=".25576" stop-color="#fff" stop-opacity=".06112"/>
      <stop offset=".38049" stop-color="#fff" stop-opacity=".13797"/>
      <stop offset=".50437" stop-color="#fff" stop-opacity=".24586"/>
      <stop offset=".62767" stop-color="#fff" stop-opacity=".38494"/>
      <stop offset=".75054" stop-color="#fff" stop-opacity=".55531"/>
      <stop offset=".87316" stop-color="#fff" stop-opacity=".75728"/>
      <stop offset=".99265" stop-color="#fff" stop-opacity=".98499"/>
      <stop offset="1" stop-color="#fff"/>
    </radialGradient>
    <radialGradient id="radial-gradient-3" cx="754.99976" cy="910.50262" fx="754.99976" fy="910.50262" r="455.27212" gradientTransform="translate(0 159.3102) scale(1 .82503)" xlink:href="#radial-gradient-2"/>
  </defs>
  <g id="Graphic_Element" data-name="Graphic Element">
    <g>
      <path id="blur" class="cls-1" d="m1108.0625,737.30615c-.00586-.24805-.01367-.49561-.02441-.74316-.02344-.56787-.05664-1.1333-.10498-1.69678-.00879-.09814-.02002-.1958-.0293-.29395-.40088-4.25439-1.51709-8.37109-3.25977-12.19482-.03369-.07373-.06592-.14795-.09961-.22119-.25-.53906-.51318-1.06982-.7876-1.59619-.09277-.17822-.18604-.35547-.28125-.53174-.2417-.44727-.49072-.88916-.75049-1.32568-.15674-.26562-.31982-.52734-.48291-.78906-.04834-.07715-.09375-.15576-.14258-.23242l-20.6958-22.25049-69.16064-70.23242v-116.27441c0-36.39844-29.6123-66.01074-66.01074-66.01074h-113.4917l-35.63525-36.1875c-11.19727-11.36719-26.15137-17.62695-42.1084-17.62695-15.95508,0-30.90723,6.26074-42.10547,17.63086l-35.63135,36.18359h-113.49268c-36.39844,0-66.01074,29.6123-66.01074,66.01074v116.27441l-69.16113,70.23291-20.69531,22.24365c-.28442.44824-.5603.90088-.8252,1.36035-.13354.22998-.26294.46191-.3916.69482-.21484.39111-.42285.78516-.62378,1.18311-.17871.35156-.35352.70508-.52124,1.06201-.1189.25439-.23145.51123-.34448.76807-.21655.48828-.42773.97803-.62378,1.47559-.02197.05566-.04126.11182-.06299.16797-1.52222,3.91455-2.40039,8.09375-2.55225,12.38086-.00488.12891-.00928.25781-.0127.38721-.00806.31348-.03125.62451-.03125.93896v285.69043c0,50.59131,38.88623,92.26367,88.33789,96.71582l30.84619.40137h470.65918l31.49902-.77344c47.77393-6.05566,84.83545-46.95264,84.83545-96.34375v-285.69043c0-.26367-.02051-.52441-.02637-.7876Z"/>
      <g id="lines">
        <g>
          <g>
            <path class="cls-4" d="m499.02832,1088.90137c-35.90527,0-65.11719-29.21094-65.11719-65.11719v-285.69043c0-2.11035,1.12988-4.08691,2.94727-5.15723.87402-.53223,1.94629-.83203,3.03906-.83203.99805,0,1.99023.25195,2.86816.73047l312.2334,170.84082,312.22559-170.83594c.89453-.4834,1.88184-.7334,2.875-.7334,1.07715,0,2.13574.29004,3.05957.84082,1.7998,1.05957,2.92969,3.03613,2.92969,5.14648v285.69043c0,35.90625-29.21191,65.11719-65.11719,65.11719h-511.94336Zm-53.13965-65.11719c0,29.30176,23.83789,53.13965,53.13965,53.13965h511.94336c29.30176,0,53.13965-23.83789,53.13965-53.13965v-275.58594l-306.23633,167.55859c-.8877.48242-1.87891.73535-2.87598.73535s-1.98828-.25293-2.86523-.73047l-306.24512-167.56348v275.58594Z"/>
            <path class="cls-4" d="m1010.97163,1083.9011h-511.94325c-33.14765,0-60.11694-26.96929-60.11694-60.11694v-285.69018c0-.34957.18348-.67211.48477-.84979.29936-.18155.67018-.18541.97919-.01738l314.62364,172.1484,314.62557-172.1484c.30708-.1661.67983-.1603.97919.01738.30129.17768.48477.50022.48477.84979v285.69018c0,33.14765-26.96929,60.11694-60.11694,60.11694Zm-570.0825-344.13844v284.0215c0,32.05838,26.08087,58.13924,58.13924,58.13924h511.94325c32.05838,0,58.13924-26.08087,58.13924-58.13924v-284.0215l-313.63673,171.60763c-.29743.16223-.65279.16223-.95022,0l-313.63479-171.60763Z"/>
          </g>
          <g>
            <path class="cls-2" d="m436.48496,741.925c-2.403-1.31481-2.88136-4.5631-.95942-6.51483l300.87094-305.53322c4.94629-5.02344,11.55371-7.78906,18.60254-7.78906.00098,0,0,0,0,0,7.0498-.00098,13.65625,2.76562,18.60352,7.78809l300.87096,305.53421c1.92194,1.95173,1.44357,5.20001-.95942,6.51482l-318.51408,174.27617-318.51504-174.27617Z"/>
            <g>
              <path class="cls-4" d="m754.99902,916.49023c-.99414,0-1.9834-.25195-2.86035-.72754l-315.11426-172.41504c-1.62402-.88867-2.76367-2.51465-3.0459-4.34863-.26953-1.88574.34668-3.77051,1.64258-5.09473l300.07129-304.72168c5.13379-5.21289,11.98926-8.08398,19.30469-8.08398,7.31934,0,14.17676,2.87109,19.31055,8.08301l300.05957,304.71094c1.30762,1.33594,1.92383,3.2207,1.66113,5.05469-.28906,1.88574-1.42871,3.51172-3.05469,4.40137l-315.09863,172.40625c-.89258.4834-1.88184.73535-2.87598.73535Zm0-12.81641l305.27051-167.02832-294.49707-299.06055c-2.86426-2.90723-6.69043-4.50879-10.77344-4.50879-4.08105,0-7.90723,1.60156-10.77246,4.50977l-294.49609,299.05957,305.26855,167.02832Z"/>
              <path class="cls-4" d="m754.99903,911.49003c-.16416,0-.3264-.04056-.47511-.12167l-315.09875-172.4072c-.27232-.14871-.45773-.41717-.50408-.72232-.04442-.30708.05794-.61803.27425-.8382l300.05938-304.71005c4.18715-4.25089,9.77646-6.59168,15.74238-6.59168,5.96785,0,11.56102,2.34079,15.74818,6.59168l300.05938,304.71005c.21631.22017.31867.53112.27425.8382-.04635.30515-.23176.57361-.50408.72232l-315.10068,172.4072c-.14871.08112-.31095.12167-.47511.12167Zm-313.47642-173.63554l313.47642,171.51879,313.47836-171.51879-299.14199-303.77721c-3.81247-3.87041-8.9035-6.00069-14.33637-6.00069s-10.52389,2.1322-14.33443,6.00069l-299.14199,303.77721Z"/>
            </g>
          </g>
          <g>
            <polygon class="cls-4" points="491.34863 1084.28711 632.1377 837.45508 642.54004 843.39453 502.88003 1088.24833 491.34863 1084.28711"/>
            <rect class="cls-4" x="429.8653" y="962.85048" width="274.1595" height="1.97919" transform="translate(-551.17907 978.42897) rotate(-60.28286)"/>
          </g>
          <g>
            <polygon class="cls-4" points="870.30664 843.39453 880.70898 837.45508 1021.5 1084.28711 1010.11783 1088.50998 870.30664 843.39453"/>
            <rect class="cls-4" x="944.91312" y="826.75985" width="1.97919" height="274.16046" transform="translate(-353.28127 595.27447) rotate(-29.70002)"/>
          </g>
        </g>
        <path id="fold" class="cls-4" d="m434.90039,744.08301v-6.07948c0-3.25741,2.64065-5.89806,5.89806-5.89806h628.4031c3.25741,0,5.89806,2.64065,5.89806,5.89806v6.07948H434.90039Z"/>
        <path id="glow" class="cls-3" d="m754.99997,910.50219l-315.09945-172.40823v285.69022c0,32.6553,26.47224,59.1271,59.1271,59.1271h511.94469c32.65487,0,59.12667-26.4718,59.12667-59.1271v-285.69022l-315.09902,172.40823Z"/>
      </g>
      <path id="paper" class="cls-4" d="m563.768,474.91315c-18.78372,0-34.01093,15.22721-34.01093,34.01093v278.33526l225.2429,123.24285,225.2429-123.24285v-278.33526c0-18.78372-15.22721-34.01093-34.01093-34.01093h-382.46395Z"/>
    </g>
  </g>
</svg>